<svg width="14" height="14" viewBox="0 0 14 14" fill="none" xmlns="http://www.w3.org/2000/svg">
<g id="pin_drop_FILL0_wght400_GRAD0_opsz48 1">
<path id="Vector" d="M7 9.65416C8.01062 8.83886 8.7737 8.05413 9.28922 7.29998C9.80474 6.54582 10.0625 5.84305 10.0625 5.19166C10.0625 4.61805 9.95799 4.13194 9.74896 3.73333C9.53993 3.33472 9.28225 3.00961 8.97591 2.758C8.66956 2.50638 8.33769 2.32408 7.98029 2.21112C7.62289 2.09815 7.29613 2.04166 7 2.04166C6.70387 2.04166 6.37711 2.09815 6.01971 2.21112C5.66231 2.32408 5.33044 2.50638 5.02409 2.758C4.71775 3.00961 4.46007 3.33472 4.25104 3.73333C4.04201 4.13194 3.9375 4.61805 3.9375 5.19166C3.9375 5.84305 4.19526 6.54582 4.71078 7.29998C5.2263 8.05413 5.98937 8.83886 7 9.65416ZM7 10.7625C5.66806 9.76111 4.67882 8.8025 4.03229 7.88668C3.38576 6.97085 3.0625 6.07371 3.0625 5.19527C3.0625 4.53175 3.1816 3.94965 3.41979 3.44896C3.65799 2.94826 3.96667 2.52778 4.34583 2.1875C4.725 1.84722 5.14782 1.59201 5.61429 1.42187C6.08076 1.25173 6.54257 1.16666 6.99971 1.16666C7.45685 1.16666 7.91875 1.25173 8.38542 1.42187C8.85208 1.59201 9.275 1.84722 9.65417 2.1875C10.0333 2.52778 10.342 2.94842 10.5802 3.44944C10.8184 3.95045 10.9375 4.53341 10.9375 5.19831C10.9375 6.0786 10.6142 6.97569 9.96771 7.88958C9.32118 8.80347 8.33194 9.76111 7 10.7625ZM7.0013 6.125C7.28238 6.125 7.52257 6.02491 7.72188 5.82474C7.92118 5.62458 8.02083 5.38396 8.02083 5.10287C8.02083 4.82179 7.92075 4.58159 7.72058 4.38229C7.52042 4.18298 7.27979 4.08333 6.9987 4.08333C6.71762 4.08333 6.47743 4.18342 6.27813 4.38359C6.07882 4.58375 5.97917 4.82437 5.97917 5.10546C5.97917 5.38654 6.07925 5.62673 6.27942 5.82604C6.47958 6.02534 6.72021 6.125 7.0013 6.125ZM3.0625 12.8333V11.9583H10.9375V12.8333H3.0625Z" fill="#919BA0"/>
</g>
</svg>
